<svg id="Group_230" data-name="Group 230" xmlns="http://www.w3.org/2000/svg" xmlns:xlink="http://www.w3.org/1999/xlink" width="197.413" height="84" viewBox="0 0 197.413 84">
  <defs>
    <style>
      .cls-1 {
        fill: none;
      }

      .cls-2 {
        clip-path: url(#clip-path);
      }

      .cls-3 {
        fill: #db6015;
      }

      .cls-4 {
        fill: #636569;
      }
    </style>
    <clipPath id="clip-path">
      <rect id="Rectangle_916" data-name="Rectangle 916" class="cls-1" width="197.413" height="84"/>
    </clipPath>
  </defs>
  <g id="Group_229" data-name="Group 229" class="cls-2">
    <path id="Path_1029" data-name="Path 1029" class="cls-3" d="M0,3.2A2.26,2.26,0,0,1,2.329.842,2.264,2.264,0,0,1,4.658,3.2,2.264,2.264,0,0,1,2.329,5.554,2.26,2.26,0,0,1,0,3.2m3.838,0a1.515,1.515,0,1,0-3.019,0,1.515,1.515,0,1,0,3.019,0" transform="translate(0 -0.647)"/>
    <path id="Path_1030" data-name="Path 1030" class="cls-3" d="M53.995,5.721l-1.79-4.556h.908l1.38,3.681,1.38-3.681h.908L54.992,5.721Z" transform="translate(-40.126 -0.896)"/>
    <path id="Path_1031" data-name="Path 1031" class="cls-3" d="M104.057,5.721V1.165h3.121v.7h-2.322V3.044h2.274v.7h-2.274v1.27h2.322v.7Z" transform="translate(-79.98 -0.896)"/>
    <path id="Path_1032" data-name="Path 1032" class="cls-3" d="M152.224,5.721l-1-1.7h-.8v1.7h-.8V1.165h2a1.385,1.385,0,0,1,1.5,1.428,1.282,1.282,0,0,1-1.086,1.339l1.12,1.789Zm.075-3.135a.713.713,0,0,0-.779-.717h-1.1V3.317h1.1a.72.72,0,0,0,.779-.731" transform="translate(-115.001 -0.895)"/>
    <path id="Path_1033" data-name="Path 1033" class="cls-3" d="M209.539,5.721V1.869h-1.38v-.7h3.558v.7h-1.38V5.721Z" transform="translate(-159.994 -0.896)"/>
    <path id="Path_1034" data-name="Path 1034" class="cls-3" d="M258.416,5.721V3.726h-2.37V5.721h-.8V1.165h.8V3.023h2.37V1.165h.8V5.721Z" transform="translate(-196.186 -0.896)"/>
    <path id="Path_1035" data-name="Path 1035" class="cls-3" d="M305.378,5.721V1.165H308.5v.7h-2.322V3.044h2.274v.7h-2.274v1.27H308.5v.7Z" transform="translate(-234.717 -0.896)"/>
    <path id="Path_1036" data-name="Path 1036" class="cls-4" d="M537.714,200.542h-7.37c-5.276,0-9.633-1.335-12.953-3.97l-.682-.541.283,13.791.277.09a37.287,37.287,0,0,0,11.564,1.75h22.412V187.683H537.714Z" transform="translate(-397.149 -144.255)"/>
    <path id="Path_1037" data-name="Path 1037" class="cls-4" d="M526.862,33.909H515.321a37.369,37.369,0,0,0-16.856,3.686c-.312.156-.312.156.638,7.107.455,3.33.92,6.656.92,6.656l.131.933.594-.731a17.607,17.607,0,0,1,1.263-1.4c3.43-3.4,8.073-5.13,13.8-5.13h51.053V57.515h-24.75V68.637h24.75v13.71H542.08V93.47H580.4V33.909Z" transform="translate(-382.984 -26.063)"/>
    <path id="Path_1038" data-name="Path 1038" class="cls-4" d="M80.625,75.1l-2.072,2.114c-3.429,3.4-8.073,5.129-13.8,5.129H13.7V69.864h24.75V58.741H13.7V45.031H38.484V33.909H.167V93.47H65.242A37.777,37.777,0,0,0,81.2,90.2l.8-.372Z" transform="translate(-0.128 -26.063)"/>
    <path id="Path_1039" data-name="Path 1039" class="cls-4" d="M200.9,45.031h7.369a21.116,21.116,0,0,1,11.678,3.055l2.168,1.407-1.311-14.018-.83-.232a38.065,38.065,0,0,0-10.194-1.333H187.372V57.89H200.9Z" transform="translate(-144.016 -26.064)"/>
    <path id="Path_1040" data-name="Path 1040" class="cls-3" d="M410.3,7.051a7.051,7.051,0,0,0-14.1,0c0,3.957,3.145,8.736,7.051,8.736s7.052-4.779,7.052-8.736" transform="translate(-304.519 0)"/>
    <path id="Path_1041" data-name="Path 1041" class="cls-3" d="M452.717,88.793l-.418-.331c-.443-.352-.832-.69-1.19-1.034-3.444-3.305-5.19-7.907-5.19-13.677a18.7,18.7,0,0,1,3.9-12.111l.322-.4-1.328-14.219-1.65.852a27.2,27.2,0,0,0-11.109,10.3A29.8,29.8,0,0,0,432.02,73.67a30.137,30.137,0,0,0,4.01,15.416,27.715,27.715,0,0,0,11.283,10.689,31.7,31.7,0,0,0,4.863,2.027l1.812.591Z" transform="translate(-332.056 -36.145)"/>
    <path id="Path_1042" data-name="Path 1042" class="cls-3" d="M339.983,51.187A27.711,27.711,0,0,0,328.7,40.5a31.869,31.869,0,0,0-6.234-2.445l-1.751-.486,1.215,13,.509.33a16.69,16.69,0,0,1,2.465,1.947c3.444,3.305,5.19,7.907,5.19,13.677,0,5.458-1.677,9.94-4.983,13.319l-.407.415,1.262,13.5,1.89-.868c.208-.093.415-.187.619-.288A27.288,27.288,0,0,0,339.958,82.09,29.791,29.791,0,0,0,343.994,66.6a30.134,30.134,0,0,0-4.01-15.415" transform="translate(-246.506 -28.874)"/>
    <path id="Path_1043" data-name="Path 1043" class="cls-3" d="M3.355,339.028a1.839,1.839,0,0,0,1.5.609,1.247,1.247,0,0,0,1.4-1.287v-.57a1.926,1.926,0,0,1-1.523.786c-1.208,0-2.1-.874-2.1-2.436a2.146,2.146,0,0,1,2.1-2.436,1.89,1.89,0,0,1,1.523.776v-.658H7.294v4.5c0,1.709-1.267,2.171-2.436,2.171a2.679,2.679,0,0,1-1.984-.707Zm2.907-3.782a1.54,1.54,0,0,0-1.218-.638,1.536,1.536,0,0,0,0,3.045,1.54,1.54,0,0,0,1.218-.638Z" transform="translate(-2.028 -256.481)"/>
    <path id="Path_1044" data-name="Path 1044" class="cls-3" d="M30.025,338.045a2,2,0,0,1-1.532.629,1.576,1.576,0,0,1-1.65-1.572,1.528,1.528,0,0,1,1.65-1.542,1.962,1.962,0,0,1,1.532.609v-.707c0-.55-.452-.884-1.11-.884a1.943,1.943,0,0,0-1.4.6l-.422-.717a2.821,2.821,0,0,1,1.994-.766c1.051,0,1.974.442,1.974,1.719v3.143H30.025Zm0-1.287a1.389,1.389,0,0,0-1.129-.491.863.863,0,1,0,0,1.7,1.389,1.389,0,0,0,1.129-.491Z" transform="translate(-20.632 -256.481)"/>
    <path id="Path_1045" data-name="Path 1045" class="cls-3" d="M48.552,333.541V330.8h-.786v-.9h.786v-1.3h1.032v1.3h.963v.9h-.963v2.485c0,.324.157.56.452.56a.665.665,0,0,0,.462-.167l.246.776a1.36,1.36,0,0,1-.973.3,1.094,1.094,0,0,1-1.218-1.218" transform="translate(-36.714 -252.566)"/>
    <path id="Path_1046" data-name="Path 1046" class="cls-3" d="M66.65,329.958c0-.737-.383-.962-.963-.962a1.594,1.594,0,0,0-1.218.638v3.31H63.438v-6.552h1.031v2.456a2.268,2.268,0,0,1,1.68-.766,1.354,1.354,0,0,1,1.532,1.5v3.359H66.65Z" transform="translate(-48.759 -250.869)"/>
    <path id="Path_1047" data-name="Path 1047" class="cls-3" d="M88.173,333.694a2.351,2.351,0,0,1,2.338,2.583v.246H86.847a1.437,1.437,0,0,0,1.513,1.306,2.009,2.009,0,0,0,1.346-.521l.471.678a2.766,2.766,0,0,1-1.925.687,2.491,2.491,0,0,1-.079-4.98m-1.336,2.1h2.672a1.269,1.269,0,0,0-1.336-1.257,1.309,1.309,0,0,0-1.336,1.257" transform="translate(-65.922 -256.481)"/>
    <path id="Path_1048" data-name="Path 1048" class="cls-3" d="M110.218,333.844h1.031v.7a2.026,2.026,0,0,1,1.542-.806v1.021a1.521,1.521,0,0,0-.324-.029,1.638,1.638,0,0,0-1.218.629v3.231h-1.031Z" transform="translate(-84.715 -256.514)"/>
    <path id="Path_1049" data-name="Path 1049" class="cls-3" d="M123.8,326.182a.638.638,0,1,1,.638.639.643.643,0,0,1-.638-.639m.127,1.366h1.031v4.744h-1.031Z" transform="translate(-95.153 -250.217)"/>
    <path id="Path_1050" data-name="Path 1050" class="cls-3" d="M137.247,335.59c0-.737-.373-.982-.953-.982a1.561,1.561,0,0,0-1.218.638v3.31h-1.031v-4.744h1.031v.648a2.245,2.245,0,0,1,1.67-.766,1.367,1.367,0,0,1,1.532,1.522v3.339h-1.032Z" transform="translate(-103.029 -256.481)"/>
    <path id="Path_1051" data-name="Path 1051" class="cls-3" d="M157.12,339.028a1.839,1.839,0,0,0,1.5.609,1.247,1.247,0,0,0,1.4-1.287v-.57a1.926,1.926,0,0,1-1.523.786c-1.208,0-2.1-.874-2.1-2.436a2.146,2.146,0,0,1,2.1-2.436,1.89,1.89,0,0,1,1.523.776v-.658h1.031v4.5c0,1.709-1.267,2.171-2.436,2.171a2.679,2.679,0,0,1-1.984-.707Zm2.907-3.782a1.54,1.54,0,0,0-1.218-.638,1.535,1.535,0,0,0,0,3.045,1.54,1.54,0,0,0,1.218-.638Z" transform="translate(-120.213 -256.481)"/>
    <path id="Path_1052" data-name="Path 1052" class="cls-3" d="M191.488,333.541V330.8H190.7v-.9h.786v-1.3h1.032v1.3h.963v.9h-.963v2.485c0,.324.157.56.452.56a.665.665,0,0,0,.462-.167l.245.776a1.359,1.359,0,0,1-.972.3,1.094,1.094,0,0,1-1.218-1.218" transform="translate(-146.576 -252.566)"/>
    <path id="Path_1053" data-name="Path 1053" class="cls-3" d="M209.586,329.958c0-.737-.383-.962-.963-.962a1.594,1.594,0,0,0-1.218.638v3.31h-1.031v-6.552h1.031v2.456a2.268,2.268,0,0,1,1.68-.766,1.354,1.354,0,0,1,1.533,1.5v3.359h-1.032Z" transform="translate(-158.622 -250.869)"/>
    <path id="Path_1054" data-name="Path 1054" class="cls-3" d="M231.109,333.694a2.351,2.351,0,0,1,2.338,2.583v.246h-3.664a1.437,1.437,0,0,0,1.513,1.306,2.009,2.009,0,0,0,1.346-.521l.471.678a2.766,2.766,0,0,1-1.925.687,2.491,2.491,0,0,1-.079-4.98m-1.336,2.1h2.672a1.269,1.269,0,0,0-1.336-1.257,1.309,1.309,0,0,0-1.336,1.257" transform="translate(-175.784 -256.481)"/>
    <path id="Path_1055" data-name="Path 1055" class="cls-3" d="M270.346,335.462c0-.511-.226-.854-.776-.854a1.439,1.439,0,0,0-1.1.628v3.32h-1.031v-3.094c0-.511-.226-.854-.786-.854a1.435,1.435,0,0,0-1.09.638v3.31h-1.031v-4.744h1.031v.648a2.048,2.048,0,0,1,1.542-.766,1.236,1.236,0,0,1,1.3.874,2.012,2.012,0,0,1,1.611-.874,1.25,1.25,0,0,1,1.365,1.434v3.428h-1.031Z" transform="translate(-203.322 -256.481)"/>
    <path id="Path_1056" data-name="Path 1056" class="cls-3" d="M298.151,336.179a2.441,2.441,0,1,1,2.436,2.495,2.375,2.375,0,0,1-2.436-2.495m3.811,0a1.384,1.384,0,1,0-1.375,1.581,1.424,1.424,0,0,0,1.375-1.581" transform="translate(-229.162 -256.481)"/>
    <path id="Path_1057" data-name="Path 1057" class="cls-3" d="M326.442,338.32a2.274,2.274,0,0,1-1.68.747,1.346,1.346,0,0,1-1.522-1.5V334.2h1.031v2.986c0,.737.373.963.953.963a1.578,1.578,0,0,0,1.218-.619V334.2h1.032v4.744h-1.032Z" transform="translate(-248.446 -256.873)"/>
    <path id="Path_1058" data-name="Path 1058" class="cls-3" d="M349.976,335.59c0-.737-.373-.982-.953-.982a1.561,1.561,0,0,0-1.218.638v3.31h-1.031v-4.744h1.031v.648a2.245,2.245,0,0,1,1.67-.766,1.368,1.368,0,0,1,1.533,1.522v3.339h-1.032Z" transform="translate(-266.535 -256.481)"/>
    <path id="Path_1059" data-name="Path 1059" class="cls-3" d="M368.657,333.541V330.8h-.786v-.9h.786v-1.3h1.032v1.3h.963v.9h-.963v2.485c0,.324.157.56.452.56a.665.665,0,0,0,.462-.167l.246.776a1.36,1.36,0,0,1-.972.3,1.094,1.094,0,0,1-1.218-1.218" transform="translate(-282.75 -252.566)"/>
    <path id="Path_1060" data-name="Path 1060" class="cls-3" d="M385.558,338.045a2,2,0,0,1-1.532.629,1.576,1.576,0,0,1-1.65-1.572,1.528,1.528,0,0,1,1.65-1.542,1.962,1.962,0,0,1,1.532.609v-.707c0-.55-.452-.884-1.11-.884a1.943,1.943,0,0,0-1.4.6l-.422-.717a2.821,2.821,0,0,1,1.994-.766c1.051,0,1.975.442,1.975,1.719v3.143h-1.032Zm0-1.287a1.389,1.389,0,0,0-1.129-.491.863.863,0,1,0,0,1.7,1.389,1.389,0,0,0,1.129-.491Z" transform="translate(-293.899 -256.481)"/>
    <path id="Path_1061" data-name="Path 1061" class="cls-3" d="M405.189,326.182a.638.638,0,1,1,.638.639.643.643,0,0,1-.638-.639m.128,1.366h1.031v4.744h-1.031Z" transform="translate(-311.433 -250.217)"/>
    <path id="Path_1062" data-name="Path 1062" class="cls-3" d="M418.639,335.59c0-.737-.373-.982-.953-.982a1.561,1.561,0,0,0-1.218.638v3.31h-1.031v-4.744h1.031v.648a2.245,2.245,0,0,1,1.67-.766,1.367,1.367,0,0,1,1.532,1.522v3.339h-1.031Z" transform="translate(-319.31 -256.481)"/>
    <path id="Path_1063" data-name="Path 1063" class="cls-3" d="M450.414,326.392h1.031v2.465a1.876,1.876,0,0,1,1.522-.776c1.218,0,2.1.963,2.1,2.495,0,1.562-.894,2.485-2.1,2.485a1.907,1.907,0,0,1-1.522-.766v.648h-1.031Zm2.249,5.756a1.6,1.6,0,0,0,0-3.153,1.548,1.548,0,0,0-1.218.648v1.876a1.531,1.531,0,0,0,1.218.629" transform="translate(-346.194 -250.869)"/>
    <path id="Path_1064" data-name="Path 1064" class="cls-3" d="M474.038,326.182a.639.639,0,1,1,.638.639.643.643,0,0,1-.638-.639m.128,1.366H475.2v4.744h-1.031Z" transform="translate(-364.351 -250.217)"/>
    <path id="Path_1065" data-name="Path 1065" class="cls-3" d="M485.975,330.989l-.658.678v1.277h-1.031v-6.552h1.031v4.1l2.092-2.289h1.277l-1.974,2.151,2.014,2.593h-1.3Z" transform="translate(-372.228 -250.869)"/>
    <path id="Path_1066" data-name="Path 1066" class="cls-3" d="M506.376,333.694a2.35,2.35,0,0,1,2.338,2.583v.246H505.05a1.437,1.437,0,0,0,1.513,1.306,2.01,2.01,0,0,0,1.346-.521l.471.678a2.766,2.766,0,0,1-1.925.687,2.491,2.491,0,0,1-.078-4.98m-1.336,2.1h2.672a1.269,1.269,0,0,0-1.336-1.257,1.309,1.309,0,0,0-1.336,1.257" transform="translate(-387.357 -256.481)"/>
    <path id="Path_1067" data-name="Path 1067" class="cls-3" d="M540.776,335.47l-1.1,3.477H538.6l-1.473-4.744h1.071l1,3.448,1.13-3.448h.9l1.13,3.448,1-3.448h1.071l-1.473,4.744h-1.081Z" transform="translate(-412.839 -256.873)"/>
    <path id="Path_1068" data-name="Path 1068" class="cls-3" d="M569.826,336.179a2.442,2.442,0,1,1,2.436,2.495,2.375,2.375,0,0,1-2.436-2.495m3.811,0a1.384,1.384,0,1,0-1.375,1.581,1.424,1.424,0,0,0,1.375-1.581" transform="translate(-437.975 -256.481)"/>
    <path id="Path_1069" data-name="Path 1069" class="cls-3" d="M594.987,333.844h1.031v.7a2.026,2.026,0,0,1,1.542-.806v1.021a1.524,1.524,0,0,0-.324-.029,1.639,1.639,0,0,0-1.218.629v3.231h-1.031Z" transform="translate(-457.314 -256.514)"/>
    <rect id="Rectangle_915" data-name="Rectangle 915" class="cls-3" width="1.031" height="6.552" transform="translate(140.943 75.523)"/>
    <path id="Path_1070" data-name="Path 1070" class="cls-3" d="M621.34,332.3a1.92,1.92,0,0,1-1.522.766c-1.218,0-2.112-.923-2.112-2.485a2.2,2.2,0,0,1,2.112-2.495,1.9,1.9,0,0,1,1.522.776v-2.465h1.031v6.552H621.34Zm0-2.662a1.558,1.558,0,0,0-1.228-.638,1.6,1.6,0,0,0,0,3.153,1.55,1.55,0,0,0,1.228-.629Z" transform="translate(-474.776 -250.869)"/>
    <path id="Path_1071" data-name="Path 1071" class="cls-3" d="M653.241,337.191a2.449,2.449,0,0,0,1.611.668c.619,0,.933-.226.933-.579,0-.413-.5-.56-1.08-.688-.815-.177-1.788-.393-1.788-1.454,0-.776.668-1.444,1.866-1.444a2.712,2.712,0,0,1,1.847.668l-.432.727a1.914,1.914,0,0,0-1.4-.57c-.54,0-.884.2-.884.531,0,.363.472.491,1.031.619.825.177,1.836.413,1.836,1.532,0,.835-.7,1.473-1.974,1.473a2.886,2.886,0,0,1-2.033-.737Z" transform="translate(-501.726 -256.481)"/>
    <path id="Path_1072" data-name="Path 1072" class="cls-3" d="M673.476,326.182a.638.638,0,1,1,.638.639.643.643,0,0,1-.638-.639m.128,1.366h1.031v4.744H673.6Z" transform="translate(-517.642 -250.217)"/>
    <path id="Path_1073" data-name="Path 1073" class="cls-3" d="M686.926,335.59c0-.737-.373-.982-.953-.982a1.562,1.562,0,0,0-1.218.638v3.31h-1.031v-4.744h1.031v.648a2.245,2.245,0,0,1,1.67-.766,1.367,1.367,0,0,1,1.532,1.522v3.339h-1.031Z" transform="translate(-525.518 -256.481)"/>
    <path id="Path_1074" data-name="Path 1074" class="cls-3" d="M708.466,333.694a2.128,2.128,0,0,1,1.817.845l-.678.629a1.266,1.266,0,0,0-1.09-.56,1.584,1.584,0,0,0,0,3.153,1.289,1.289,0,0,0,1.09-.56l.678.629a2.128,2.128,0,0,1-1.817.845,2.49,2.49,0,0,1,0-4.98" transform="translate(-542.648 -256.481)"/>
    <path id="Path_1075" data-name="Path 1075" class="cls-3" d="M728.486,333.694a2.35,2.35,0,0,1,2.338,2.583v.246H727.16a1.437,1.437,0,0,0,1.513,1.306,2.009,2.009,0,0,0,1.346-.521l.471.678a2.766,2.766,0,0,1-1.925.687,2.491,2.491,0,0,1-.078-4.98m-1.336,2.1h2.672a1.269,1.269,0,0,0-1.336-1.257,1.309,1.309,0,0,0-1.336,1.257" transform="translate(-558.074 -256.481)"/>
    <path id="Path_1076" data-name="Path 1076" class="cls-3" d="M761.4,327.886,760.325,329l-.668-.7,1.886-1.906h1v6.552H761.4Z" transform="translate(-583.882 -250.869)"/>
    <path id="Path_1077" data-name="Path 1077" class="cls-3" d="M777.475,331.1a1.721,1.721,0,0,0,1.346.57c1.189,0,1.729-1.08,1.729-2.151v-.2a2.271,2.271,0,0,1-1.758.923,2.05,2.05,0,0,1-2.2-2.122,2.242,2.242,0,0,1,2.416-2.2c1.925,0,2.7,1.562,2.7,3.389,0,1.886-.992,3.379-2.888,3.379a2.572,2.572,0,0,1-1.876-.727Zm1.592-4.155a1.216,1.216,0,0,0-1.307,1.139,1.181,1.181,0,0,0,1.336,1.169,1.771,1.771,0,0,0,1.434-.766,1.5,1.5,0,0,0-1.463-1.542" transform="translate(-596.897 -250.511)"/>
    <path id="Path_1078" data-name="Path 1078" class="cls-3" d="M802.623,331.1a1.72,1.72,0,0,0,1.345.57c1.189,0,1.729-1.08,1.729-2.151v-.2a2.271,2.271,0,0,1-1.758.923,2.05,2.05,0,0,1-2.2-2.122,2.242,2.242,0,0,1,2.416-2.2c1.925,0,2.7,1.562,2.7,3.389,0,1.886-.992,3.379-2.888,3.379a2.573,2.573,0,0,1-1.876-.727Zm1.591-4.155a1.216,1.216,0,0,0-1.306,1.139,1.181,1.181,0,0,0,1.336,1.169,1.772,1.772,0,0,0,1.434-.766,1.5,1.5,0,0,0-1.464-1.542" transform="translate(-616.226 -250.511)"/>
    <path id="Path_1079" data-name="Path 1079" class="cls-3" d="M828.151,331.264a2.26,2.26,0,0,0,1.768.776,1.208,1.208,0,0,0,1.346-1.149,1.168,1.168,0,0,0-1.316-1.169,1.972,1.972,0,0,0-1.434.57l-.815-.236v-3.664h4.292V327.4h-3.143v1.9a2.133,2.133,0,0,1,1.483-.57,2.032,2.032,0,0,1,2.092,2.112,2.237,2.237,0,0,1-2.495,2.22,3,3,0,0,1-2.436-1.012Z" transform="translate(-636.021 -250.869)"/>
  </g>
</svg>
